# xmcd
#
# Track frame offsets: 
#        150
#        23997
#        41914
#        62757
#        84872
#        107645
#        133362
#        153367
#        175500
#        193647
#
# Disc length: 2869 seconds
#
# Revision: 1
# Processed by: cddbd v1.5.2PL0 Copyright (c) Steve Scherf et al.
# Submitted via: ExactAudioCopy v1.0b3
#
DISCID=7f0b330a
DTITLE=Luisito Carrion - Con Respeto
DYEAR=1995
DGENRE=Salsa
TTITLE0=Solo Tu
TTITLE1=Tu Amante Y Tu Amigo
TTITLE2=Oh, Oh, Oh
TTITLE3=Un Buen Cuento De Amantes
TTITLE4=Modelo De La Noche
TTITLE5=Dama Elegante
TTITLE6=Trato De Olvidarte
TTITLE7=Te Dare Mucho Mas
TTITLE8=Una Chica Como Tu
TTITLE9=De Que Vale La Existencia
EXTD=YEAR: 1995
EXTT0=
EXTT1=
EXTT2=
EXTT3=
EXTT4=
EXTT5=
EXTT6=
EXTT7=
EXTT8=
EXTT9=
PLAYORDER=
